<svg xmlns="http://www.w3.org/2000/svg" width="32.908" height="32.097" viewBox="0 0 32.908 32.097">
  <g id="グループ_3" data-name="グループ 3" transform="translate(-832.046 -1358.952)">
    <path id="mark-github" d="M16.454,0a16.455,16.455,0,0,0-5.2,32.065c.823.144,1.131-.35,1.131-.782,0-.391-.021-1.687-.021-3.065-4.134.761-5.2-1.008-5.533-1.933a5.983,5.983,0,0,0-1.687-2.324c-.576-.309-1.4-1.07-.021-1.09a3.293,3.293,0,0,1,2.53,1.687,3.517,3.517,0,0,0,4.792,1.357,3.461,3.461,0,0,1,1.049-2.2C9.831,23.3,6.006,21.884,6.006,15.59a6.4,6.4,0,0,1,1.687-4.422,5.913,5.913,0,0,1,.165-4.36s1.378-.432,4.525,1.687a15.513,15.513,0,0,1,8.227,0c3.147-2.139,4.525-1.687,4.525-1.687a5.913,5.913,0,0,1,.165,4.36,6.366,6.366,0,0,1,1.687,4.422c0,6.314-3.846,7.713-7.507,8.124a3.9,3.9,0,0,1,1.111,3.044c0,2.2-.021,3.97-.021,4.525,0,.432.309.946,1.131.782A16.463,16.463,0,0,0,16.454,0Z" transform="translate(832.046 1358.952)" fill="#fff" fill-rule="evenodd"/>
  </g>
</svg>
